HIERARCHY
ROOT joint_Root
{
	OFFSET 0.0 0.0 0.0
	CHANNELS 6 Xposition Yposition Zposition Zrotation Xrotation Yrotation 
	JOINT Hips
	{
		OFFSET 4.5925 91.4895 -427.239
		CHANNELS 6 Xposition Yposition Zposition Zrotation Xrotation Yrotation 
		JOINT Spine
		{
			OFFSET 15.7357 0.0 0.0
			CHANNELS 6 Xposition Yposition Zposition Zrotation Xrotation Yrotation 
			JOINT Chest
			{
				OFFSET 8.98455 -0.406207 0.0
				CHANNELS 6 Xposition Yposition Zposition Zrotation Xrotation Yrotation 
				JOINT Neck
				{
					OFFSET 16.3773 0.0 0.0
					CHANNELS 6 Xposition Yposition Zposition Zrotation Xrotation Yrotation 
					JOINT Head
					{
						OFFSET 6.45672 0.0 0.0
						CHANNELS 6 Xposition Yposition Zposition Zrotation Xrotation Yrotation 
						End Site
						{
							OFFSET 0.0 0.0 0.0
						}
					}
				}
				JOINT Shoulder_L
				{
					OFFSET 12.9942 -0.242716 4.98039
					CHANNELS 6 Xposition Yposition Zposition Zrotation Xrotation Yrotation 
					JOINT UpperArm_L
					{
						OFFSET 5.34809 0.0 0.0
						CHANNELS 6 Xposition Yposition Zposition Zrotation Xrotation Yrotation 
						JOINT LowerArm_L
						{
							OFFSET 24.3286 1.87007e-05 0.0
							CHANNELS 6 Xposition Yposition Zposition Zrotation Xrotation Yrotation 
							JOINT Hand_L
							{
								OFFSET 22.2916 0.0 0.0
								CHANNELS 6 Xposition Yposition Zposition Zrotation Xrotation Yrotation 
								End Site
								{
									OFFSET 0.0 0.0 0.0
								}
							}
						}
					}
				}
				JOINT Shoulder_R
				{
					OFFSET 12.9945 -0.242716 -4.98039
					CHANNELS 6 Xposition Yposition Zposition Zrotation Xrotation Yrotation 
					JOINT UpperArm_R
					{
						OFFSET -5.34813 0.0 0.0
						CHANNELS 6 Xposition Yposition Zposition Zrotation Xrotation Yrotation 
						JOINT LowerArm_R
						{
							OFFSET -24.3289 0.000322201 0.0
							CHANNELS 6 Xposition Yposition Zposition Zrotation Xrotation Yrotation 
							JOINT Hand_R
							{
								OFFSET -22.2915 -0.000108084 0.0
								CHANNELS 6 Xposition Yposition Zposition Zrotation Xrotation Yrotation 
								End Site
								{
									OFFSET 0.0 0.0 0.0
								}
							}
						}
					}
				}
			}
		}
		JOINT UpperLeg_L
		{
			OFFSET -2.19248 -6.46944 0.0
			CHANNELS 6 Xposition Yposition Zposition Zrotation Xrotation Yrotation 
			JOINT LowerLeg_L
			{
				OFFSET 39.0811 0.0 -1.23785e-05
				CHANNELS 6 Xposition Yposition Zposition Zrotation Xrotation Yrotation 
				JOINT Foot_L
				{
					OFFSET 40.9854 0.0 -1.26872e-05
					CHANNELS 6 Xposition Yposition Zposition Zrotation Xrotation Yrotation 
					JOINT Toes_L
					{
						OFFSET 11.7543 0.0 0.0
						CHANNELS 6 Xposition Yposition Zposition Zrotation Xrotation Yrotation 
						End Site
						{
							OFFSET 0.0 0.0 0.0
						}
					}
				}
			}
		}
		JOINT UpperLeg_R
		{
			OFFSET -2.19251 6.46944 0.0
			CHANNELS 6 Xposition Yposition Zposition Zrotation Xrotation Yrotation 
			JOINT LowerLeg_R
			{
				OFFSET -39.0811 -0.00228153 -0.0401928
				CHANNELS 6 Xposition Yposition Zposition Zrotation Xrotation Yrotation 
				JOINT Foot_R
				{
					OFFSET -40.9854 0.0 0.0
					CHANNELS 6 Xposition Yposition Zposition Zrotation Xrotation Yrotation 
					JOINT Toes_R
					{
						OFFSET -11.7543 0.0 0.0
						CHANNELS 6 Xposition Yposition Zposition Zrotation Xrotation Yrotation 
						End Site
						{
							OFFSET 0.0 0.0 0.0
						}
					}
				}
			}
		}
	}
}
MOTION
Frames:	5
Frame Time:	0.0333333
0.000000 0.000000 0.000000 0.000000 0.000000 -0.000000 -2.000750 86.065900 -44.683900 86.256300 13.130900 3.515010 15.735700 0.000005 -0.000001 52.094700 83.324400 -50.143600 8.984550 -0.406207 -0.000000 2.939790 -8.276780 4.116160 16.377300 -0.000001 -0.000001 -1.518570 -6.874570 0.667775 6.456720 -0.000001 -0.000000 -9.775130 -3.581740 -1.394980 12.994200 -0.242716 4.980390 -90.740200 2.788280 -75.127200 5.348090 -0.000007 -0.000001 -56.899400 33.387100 -30.477900 24.328600 0.000019 0.000005 14.486300 9.355820 -57.822800 22.291600 -0.000001 0.000005 19.438400 5.333850 -0.898583 12.994500 -0.242716 -4.980390 87.101200 10.849800 -74.943500 -5.348130 -0.000001 -0.000004 -68.577900 15.508600 14.781100 -24.328900 0.000322 -0.000009 0.402076 8.724590 -2.655970 -22.291500 -0.000108 -0.000004 10.714300 5.201810 2.673830 -2.192480 -6.469440 -0.000000 -170.920000 -5.158950 4.653810 39.081100 -0.000007 -0.000012 0.046161 -0.037417 50.969900 40.985400 -0.000006 -0.000013 1.636460 14.827200 -58.931100 11.754300 -0.000000 0.000003 -0.171968 -0.596388 -41.947600 -2.192510 6.469440 -0.000001 -170.989000 9.044680 148.222000 -39.081100 -0.002282 -0.040193 -0.082592 0.088247 44.214100 -40.985400 0.000008 0.000006 8.048950 -8.446060 -60.616600 -11.754300 -0.000006 -0.000006 -0.008879 -0.095064 -20.445100
0.000000 0.000000 0.000000 0.000000 0.000000 -0.000000 -1.691170 86.158800 -39.887000 85.359100 12.149100 5.608710 15.735700 0.000005 -0.000001 57.111100 82.992700 -54.785500 8.984550 -0.406207 -0.000000 4.193600 -7.671130 4.932780 16.377300 -0.000001 -0.000001 -1.894880 -6.963500 0.922673 6.456720 -0.000001 -0.000000 -9.761750 -4.065140 -0.463686 12.994200 -0.242716 4.980390 -90.746900 2.829810 -75.207300 5.348090 -0.000007 -0.000001 -59.810200 34.918100 -26.994200 24.328600 0.000019 0.000005 13.430200 11.172000 -50.941800 22.291600 -0.000001 0.000005 17.934200 5.338600 -1.037330 12.994500 -0.242716 -4.980390 87.181900 10.948200 -75.469300 -5.348130 -0.000001 -0.000004 -67.881400 16.068700 11.252100 -24.328900 0.000322 -0.000009 0.381476 7.029390 -3.124670 -22.291500 -0.000108 -0.000004 10.840200 5.208020 2.517350 -2.192480 -6.469440 -0.000000 -170.858000 -1.700060 -0.832996 39.081100 -0.000007 -0.000012 0.066970 -0.034904 62.468100 40.985400 -0.000006 -0.000013 -6.644340 9.973240 -44.129000 11.754300 -0.000000 0.000003 -0.023041 -0.183599 -24.084300 -2.192510 6.469440 -0.000001 -170.183000 11.069100 152.870000 -39.081100 -0.002282 -0.040193 -0.155536 0.152130 46.228400 -40.985400 0.000008 0.000006 7.887340 -6.690580 -65.631700 -11.754300 -0.000006 -0.000006 -0.007538 -0.084216 -20.002000
0.000000 0.000000 0.000000 0.000000 0.000000 -0.000000 -1.289070 86.322100 -35.932700 84.962200 10.857300 6.866900 15.735700 0.000005 -0.000001 63.549200 82.820900 -60.988400 8.984550 -0.406207 -0.000000 5.264820 -6.437860 5.416420 16.377300 -0.000001 -0.000001 -2.298090 -7.324070 1.168810 6.456720 -0.000001 -0.000000 -10.093400 -4.816690 0.744124 12.994200 -0.242716 4.980390 -90.847800 3.349850 -75.788900 5.348090 -0.000007 -0.000001 -61.387500 36.819000 -25.646000 24.328600 0.000019 0.000005 10.782100 13.017800 -40.211300 22.291600 -0.000001 0.000005 16.452800 5.331740 -0.834010 12.994500 -0.242716 -4.980390 87.231400 11.296500 -76.132000 -5.348130 -0.000001 -0.000004 -66.652800 16.869300 6.455850 -24.328900 0.000322 -0.000009 0.454920 5.712140 -4.579340 -22.291500 -0.000108 -0.000004 10.839500 5.223000 2.137500 -2.192480 -6.469440 -0.000000 -171.694000 0.774128 -7.753820 39.081100 -0.000007 -0.000012 0.037927 -0.011855 72.633000 40.985400 -0.000006 -0.000013 -9.677910 5.037360 -38.220300 11.754300 -0.000000 0.000003 -0.006603 -0.076228 -19.679600 -2.192510 6.469440 -0.000001 -170.253000 14.389200 157.007000 -39.081100 -0.002282 -0.040193 -0.174178 0.166174 46.877400 -40.985400 0.000008 0.000006 8.560700 -3.098230 -69.525100 -11.754300 -0.000006 -0.000006 -0.006075 -0.071514 -19.483700
0.000000 0.000000 0.000000 0.000000 0.000000 -0.000000 -0.744236 87.112100 -32.065300 85.361700 7.808330 7.641010 15.735700 0.000005 -0.000001 72.685900 82.827900 -70.262300 8.984550 -0.406207 -0.000000 6.037070 -4.294140 5.070190 16.377300 -0.000001 -0.000001 -2.245020 -7.192590 1.598830 6.456720 -0.000001 -0.000000 -10.321100 -5.573030 2.161300 12.994200 -0.242716 4.980390 -90.930200 3.723190 -75.961700 5.348090 -0.000007 -0.000001 -63.007200 38.511100 -24.743700 24.328600 0.000019 0.000005 8.240020 16.296200 -27.316500 22.291600 -0.000001 0.000005 13.381700 5.295120 0.235626 12.994500 -0.242716 -4.980390 87.361900 12.032000 -77.535700 -5.348130 -0.000001 -0.000004 -64.792600 19.040100 1.315000 -24.328900 0.000322 -0.000009 0.494751 3.974290 -7.130850 -22.291500 -0.000108 -0.000004 11.656300 5.252400 1.373410 -2.192480 -6.469440 -0.000000 -172.943000 -0.243428 -12.337200 39.081100 -0.000007 -0.000012 -0.033716 0.007210 77.940400 40.985400 -0.000006 -0.000013 -3.990200 4.741460 -45.362800 11.754300 -0.000000 0.000003 -0.006850 -0.078378 -19.767400 -2.192510 6.469440 -0.000001 -171.321000 14.176200 162.341000 -39.081100 -0.002282 -0.040193 -0.116963 0.120757 44.874000 -40.985400 0.000008 0.000006 9.457430 -0.858873 -71.720500 -11.754300 -0.000006 -0.000006 -0.005755 -0.068595 -19.364600
0.000000 0.000000 0.000000 0.000000 0.000000 -0.000000 -0.086675 88.091700 -28.462400 86.362700 3.756280 7.742800 15.735700 0.000005 -0.000001 80.396900 82.972900 -78.525100 8.984550 -0.406207 -0.000000 6.136740 -2.364660 3.866730 16.377300 -0.000001 -0.000001 -1.777580 -6.176790 2.254510 6.456720 -0.000001 -0.000000 -9.873540 -5.865810 3.430980 12.994200 -0.242716 4.980390 -90.840600 3.217930 -75.349400 5.348090 -0.000007 -0.000001 -66.832100 37.538400 -20.862300 24.328600 0.000019 0.000005 6.901040 23.746200 -16.751000 22.291600 -0.000001 0.000005 9.492620 5.214790 2.364690 12.994500 -0.242716 -4.980390 87.725200 12.597500 -79.677300 -5.348130 -0.000001 -0.000004 -62.849900 22.443100 -4.216060 -24.328900 0.000322 -0.000009 0.444085 2.471040 -10.227200 -22.291500 -0.000108 -0.000004 13.636400 5.285810 0.474293 -2.192480 -6.469440 -0.000000 -174.217000 -2.939890 -16.898500 39.081100 -0.000007 -0.000012 -0.015689 0.003137 78.719000 40.985400 -0.000006 -0.000013 -2.127640 0.822901 -48.106000 11.754300 -0.000000 0.000003 -0.006571 -0.075946 -19.668100 -2.192510 6.469440 -0.000001 -172.998000 12.609300 167.380000 -39.081100 -0.002282 -0.040193 -0.017411 0.023201 41.717800 -40.985400 0.000008 0.000006 10.469500 1.465990 -73.067500 -11.754300 -0.000006 -0.000006 -0.006083 -0.071584 -19.486500
